<?xml version="1.0" encoding="utf-8"?>
<!-- Generator: Adobe Illustrator 16.0.4, SVG Export Plug-In . SVG Version: 6.00 Build 0)  -->
<!DOCTYPE svg PUBLIC "-//W3C//DTD SVG 1.1//EN" "http://www.w3.org/Graphics/SVG/1.1/DTD/svg11.dtd">
<svg version="1.1" id="Layer_1" xmlns="http://www.w3.org/2000/svg" xmlns:xlink="http://www.w3.org/1999/xlink" x="0px" y="0px"
	 width="50px" height="50px" viewBox="0 0 50 50" enable-background="new 0 0 50 50" xml:space="preserve">
<path d="M20.578,12.28l-2.505,2.339v0.67h-1.026l-2.504,2.339V37.72h14.879v-0.602l1.954-1.738h0.55v-0.668h1.026V34.11l1.956-1.738
	h0.549V12.28H20.578z M25.977,29.546h-2.463v2.461h-3.076v-2.461h-2.461v-3.078h2.461v-2.461h3.076v2.461h2.463V29.546z
	 M31.264,31.929v0.092v0.217v0.135v0.174v1.988v0.088v0.09v0.297l-0.021,0.021l-0.396,0.353l-1.424,1.266v-1.266v-0.353v-0.315
	v-0.091v-0.088v-2.162v-0.352v-2.116v-0.309v-0.31V17.628h-8.131h-0.216h-0.144h-0.072h-0.281H18.25h-0.089h-0.089H17.4h-0.354
	h-1.312l0.09-0.091l0.091-0.088l0.955-0.937l0.088-0.088l0.088-0.086l0.253-0.248l0.102-0.098l0.008-0.008h0.664h0.089h0.089h1.466
	h0.216h0.215h0.433h0.354h10.33V31.929L31.264,31.929z M34.795,32.001l-0.021,0.021l-0.396,0.352l-1.425,1.267v-1.267v-0.352V14.619
	H20.932h-0.354h-1.312l0.09-0.089l0.09-0.088l0.955-0.936l0.089-0.086l0.088-0.086l0.255-0.25l0.1,0.002v-0.099l0.008-0.01h13.854
	L34.795,32.001L34.795,32.001z"/>
</svg>
